<?xml version="1.0" standalone="no"?>
 <!DOCTYPE svg PUBLIC "-//W3C//DTD SVG 1.1//EN" 
 "http://www.w3.org/Graphics/SVG/1.1/DTD/svg11.dtd"> 
<svg xmlns="http://www.w3.org/2000/svg" version="1.1" 
    width="29.7002cm" height="21.0007cm" viewBox="0 0 116930 82680 ">
<title>SVG Picture created as pt4115-F.Cu.svg date 2019/02/09 00:24:43 </title>
  <desc>Picture generated by PCBNEW </desc>
<g style="fill:#000000; fill-opacity:1;stroke:#000000; stroke-opacity:1;
stroke-linecap:round; stroke-linejoin:round; "
 transform="translate(0 0) scale(1 1)">
</g>
<g style="fill:#000000; fill-opacity:0.0; 
stroke:#000000; stroke-width:-0.000393701; stroke-opacity:1; 
stroke-linecap:round; stroke-linejoin:round;">
</g>
<g style="fill:#000000; fill-opacity:1.0; 
stroke:#000000; stroke-width:39.3701; stroke-opacity:1; 
stroke-linecap:round; stroke-linejoin:round;">
<rect x="13986.2" y="12057.1" width="16830.7" height="8326.77" rx="0" />
</g>
<g style="fill:#FFFFFF; fill-opacity:1.0; 
stroke:#FFFFFF; stroke-width:39.3701; stroke-opacity:1; 
stroke-linecap:round; stroke-linejoin:round;">
</g>
<g style="fill:#FFFFFF; fill-opacity:1.0; 
stroke:#FFFFFF; stroke-width:59.0551; stroke-opacity:1; 
stroke-linecap:round; stroke-linejoin:round;">
</g>
<g style="fill:#FFFFFF; fill-opacity:0.0; 
stroke:#FFFFFF; stroke-width:59.0551; stroke-opacity:1; 
stroke-linecap:round; stroke-linejoin:round;">
<path d="M28818 14055
L15984 14055
" />
<path d="M28818 18385
L28818 14094
" />
<path d="M15984 18385
L28818 18385
" />
<path d="M15984 14055
L15984 18385
" />
</g>
<g style="fill:#FFFFFF; fill-opacity:0.0; 
stroke:#FFFFFF; stroke-width:0; stroke-opacity:1; 
stroke-linecap:round; stroke-linejoin:round;">
</g>
<g style="fill:#FFFFFF; fill-opacity:1.0; 
stroke:#FFFFFF; stroke-width:0; stroke-opacity:1; 
stroke-linecap:round; stroke-linejoin:round;">
<polyline style="fill-rule:evenodd;"
points="24443,14813
24453,14814
24462,14817
24471,14820
24480,14824
24488,14829
24496,14835
24503,14841
24510,14848
24515,14856
24520,14865
24524,14873
24528,14882
24530,14892
24532,14901
24532,14911
24532,15718
24532,15728
24530,15737
24528,15747
24524,15756
24520,15764
24515,15773
24510,15780
24503,15788
24496,15794
24488,15800
24480,15805
24471,15809
24462,15812
24453,15815
24443,15816
24434,15816
23813,15816
23804,15816
23794,15815
23785,15812
23776,15809
23767,15805
23759,15800
23751,15794
23744,15788
23737,15780
23732,15773
23727,15764
23723,15756
23719,15747
23717,15737
23716,15728
23715,15718
23715,14911
23716,14901
23717,14892
23719,14882
23723,14873
23727,14865
23732,14856
23737,14848
23744,14841
23751,14835
23759,14829
23767,14824
23776,14820
23785,14817
23794,14814
23804,14813
23813,14812
24434,14812
24443,14813
" /> 
<polyline style="fill-rule:evenodd;"
points="26894,14813
26904,14814
26913,14817
26922,14820
26931,14824
26939,14829
26947,14835
26954,14841
26960,14848
26966,14856
26971,14865
26975,14873
26979,14882
26981,14892
26982,14901
26983,14911
26983,15718
26982,15728
26981,15737
26979,15747
26975,15756
26971,15764
26966,15773
26960,15780
26954,15788
26947,15794
26939,15800
26931,15805
26922,15809
26913,15812
26904,15815
26894,15816
26884,15816
26264,15816
26255,15816
26245,15815
26236,15812
26227,15809
26218,15805
26210,15800
26202,15794
26195,15788
26188,15780
26182,15773
26177,15764
26173,15756
26170,15747
26168,15737
26166,15728
26166,15718
26166,14911
26166,14901
26168,14892
26170,14882
26173,14873
26177,14865
26182,14856
26188,14848
26195,14841
26202,14835
26210,14829
26218,14824
26227,14820
26236,14817
26245,14814
26255,14813
26264,14812
26884,14812
26894,14813
" /> 
<polyline style="fill-rule:evenodd;"
points="19448,17185
18503,17185
18503,16594
19448,16594
19448,17185
" /> 
<polyline style="fill-rule:evenodd;"
points="19448,15019
18503,15019
18503,14429
19448,14429
19448,15019
" /> 
<polyline style="fill-rule:evenodd;"
points="20649,15551
20649,14842
21633,14842
21633,15551
20649,15551
" /> 
<polyline style="fill-rule:evenodd;"
points="22224,15551
22224,14842
23208,14842
23208,15551
22224,15551
" /> 
<polyline style="fill-rule:evenodd;"
points="16378,14567
17165,14567
17165,15354
16378,15354
16378,14567
" /> 
<circle cx="16771.7" cy="16210.6" r="393.5" /> 
</g>
<g style="fill:#FFFFFF; fill-opacity:1.0; 
stroke:#FFFFFF; stroke-width:39.3701; stroke-opacity:1; 
stroke-linecap:round; stroke-linejoin:round;">
</g>
<g style="fill:#FFFFFF; fill-opacity:1.0; 
stroke:#FFFFFF; stroke-width:0; stroke-opacity:1; 
stroke-linecap:round; stroke-linejoin:round;">
<circle cx="16771.7" cy="17460.6" r="393.5" /> 
</g>
<g style="fill:#FFFFFF; fill-opacity:1.0; 
stroke:#FFFFFF; stroke-width:39.3701; stroke-opacity:1; 
stroke-linecap:round; stroke-linejoin:round;">
</g>
<g style="fill:#FFFFFF; fill-opacity:1.0; 
stroke:#FFFFFF; stroke-width:0; stroke-opacity:1; 
stroke-linecap:round; stroke-linejoin:round;">
<polyline style="fill-rule:evenodd;"
points="28346,17401
27559,17401
27559,16614
28346,16614
28346,17401
" /> 
<circle cx="27952.8" cy="15507.9" r="393.5" /> 
</g>
<g style="fill:#FFFFFF; fill-opacity:1.0; 
stroke:#FFFFFF; stroke-width:39.3701; stroke-opacity:1; 
stroke-linecap:round; stroke-linejoin:round;">
</g>
<g style="fill:#FFFFFF; fill-opacity:1.0; 
stroke:#FFFFFF; stroke-width:0; stroke-opacity:1; 
stroke-linecap:round; stroke-linejoin:round;">
<polyline style="fill-rule:evenodd;"
points="24217,17601
24226,17603
24236,17605
24245,17608
24253,17612
24262,17617
24269,17623
24277,17629
24283,17637
24289,17644
24294,17653
24298,17661
24301,17670
24304,17680
24305,17689
24305,17699
24305,17994
24305,18004
24304,18014
24301,18023
24298,18032
24294,18041
24289,18049
24283,18057
24277,18064
24269,18070
24262,18076
24253,18081
24245,18085
24236,18089
24226,18091
24217,18092
24207,18093
23715,18093
23705,18092
23696,18091
23686,18089
23677,18085
23668,18081
23660,18076
23652,18070
23645,18064
23639,18057
23633,18049
23628,18041
23624,18032
23621,18023
23618,18014
23617,18004
23616,17994
23616,17699
23617,17689
23618,17680
23621,17670
23624,17661
23628,17653
23633,17644
23639,17637
23645,17629
23652,17623
23660,17617
23668,17612
23677,17608
23686,17605
23696,17603
23705,17601
23715,17601
24207,17601
24217,17601
" /> 
<polyline style="fill-rule:evenodd;"
points="24217,16499
24226,16500
24236,16503
24245,16506
24253,16510
24262,16515
24269,16521
24277,16527
24283,16534
24289,16542
24294,16550
24298,16559
24301,16568
24304,16577
24305,16587
24305,16597
24305,16892
24305,16902
24304,16911
24301,16921
24298,16930
24294,16938
24289,16947
24283,16954
24277,16962
24269,16968
24262,16974
24253,16979
24245,16983
24236,16986
24226,16989
24217,16990
24207,16990
23715,16990
23705,16990
23696,16989
23686,16986
23677,16983
23668,16979
23660,16974
23652,16968
23645,16962
23639,16954
23633,16947
23628,16938
23624,16930
23621,16921
23618,16911
23617,16902
23616,16892
23616,16597
23617,16587
23618,16577
23621,16568
23624,16559
23628,16550
23633,16542
23639,16534
23645,16527
23652,16521
23660,16515
23668,16510
23677,16506
23686,16503
23696,16500
23705,16499
23715,16498
24207,16498
24217,16499
" /> 
<polyline style="fill-rule:evenodd;"
points="24965,16499
24974,16500
24984,16503
24993,16506
25001,16510
25010,16515
25017,16521
25025,16527
25031,16534
25037,16542
25042,16550
25046,16559
25049,16568
25052,16577
25053,16587
25053,16597
25053,16892
25053,16902
25052,16911
25049,16921
25046,16930
25042,16938
25037,16947
25031,16954
25025,16962
25017,16968
25010,16974
25001,16979
24993,16983
24984,16986
24974,16989
24965,16990
24955,16990
24463,16990
24453,16990
24444,16989
24434,16986
24425,16983
24416,16979
24408,16974
24400,16968
24393,16962
24387,16954
24381,16947
24376,16938
24372,16930
24369,16921
24366,16911
24365,16902
24364,16892
24364,16597
24365,16587
24366,16577
24369,16568
24372,16559
24376,16550
24381,16542
24387,16534
24393,16527
24400,16521
24408,16515
24416,16510
24425,16506
24434,16503
24444,16500
24453,16499
24463,16498
24955,16498
24965,16499
" /> 
<polyline style="fill-rule:evenodd;"
points="24965,17601
24974,17603
24984,17605
24993,17608
25001,17612
25010,17617
25017,17623
25025,17629
25031,17637
25037,17644
25042,17653
25046,17661
25049,17670
25052,17680
25053,17689
25053,17699
25053,17994
25053,18004
25052,18014
25049,18023
25046,18032
25042,18041
25037,18049
25031,18057
25025,18064
25017,18070
25010,18076
25001,18081
24993,18085
24984,18089
24974,18091
24965,18092
24955,18093
24463,18093
24453,18092
24444,18091
24434,18089
24425,18085
24416,18081
24408,18076
24400,18070
24393,18064
24387,18057
24381,18049
24376,18041
24372,18032
24369,18023
24366,18014
24365,18004
24364,17994
24364,17699
24365,17689
24366,17680
24369,17670
24372,17661
24376,17653
24381,17644
24387,17637
24393,17629
24400,17623
24408,17617
24416,17612
24425,17608
24434,17605
24444,17603
24453,17601
24463,17601
24955,17601
24965,17601
" /> 
<polyline style="fill-rule:evenodd;"
points="25713,17600
25722,17602
25732,17604
25741,17607
25749,17611
25758,17616
25765,17622
25773,17629
25779,17636
25785,17643
25790,17652
25794,17661
25797,17670
25800,17679
25801,17689
25801,17698
25801,17993
25801,18003
25800,18013
25797,18022
25794,18031
25790,18040
25785,18048
25779,18056
25773,18063
25765,18070
25758,18075
25749,18080
25741,18084
25732,18088
25722,18090
25713,18091
25703,18092
25211,18092
25201,18091
25192,18090
25182,18088
25173,18084
25165,18080
25156,18075
25148,18070
25141,18063
25135,18056
25129,18048
25124,18040
25120,18031
25117,18022
25114,18013
25113,18003
25112,17993
25112,17698
25113,17689
25114,17679
25117,17670
25120,17661
25124,17652
25129,17643
25135,17636
25141,17629
25148,17622
25156,17616
25165,17611
25173,17607
25182,17604
25192,17602
25201,17600
25211,17600
25703,17600
25713,17600
" /> 
<polyline style="fill-rule:evenodd;"
points="25713,16498
25722,16499
25732,16502
25741,16505
25749,16509
25758,16514
25765,16520
25773,16526
25779,16533
25785,16541
25790,16549
25794,16558
25797,16567
25800,16577
25801,16586
25801,16596
25801,16891
25801,16901
25800,16910
25797,16920
25794,16929
25790,16937
25785,16946
25779,16954
25773,16961
25765,16967
25758,16973
25749,16978
25741,16982
25732,16985
25722,16988
25713,16989
25703,16990
25211,16990
25201,16989
25192,16988
25182,16985
25173,16982
25165,16978
25156,16973
25148,16967
25141,16961
25135,16954
25129,16946
25124,16937
25120,16929
25117,16920
25114,16910
25113,16901
25112,16891
25112,16596
25113,16586
25114,16577
25117,16567
25120,16558
25124,16549
25129,16541
25135,16533
25141,16526
25148,16520
25156,16514
25165,16509
25173,16505
25182,16502
25192,16499
25201,16498
25211,16497
25703,16497
25713,16498
" /> 
<polyline style="fill-rule:evenodd;"
points="26452,16498
26461,16499
26471,16502
26480,16505
26488,16509
26497,16514
26504,16520
26512,16526
26518,16533
26524,16541
26529,16549
26533,16558
26536,16567
26539,16577
26540,16586
26540,16596
26540,16891
26540,16901
26539,16910
26536,16920
26533,16929
26529,16937
26524,16946
26518,16954
26512,16961
26504,16967
26497,16973
26488,16978
26480,16982
26471,16985
26461,16988
26452,16989
26442,16990
25950,16990
25940,16989
25931,16988
25921,16985
25912,16982
25904,16978
25895,16973
25887,16967
25880,16961
25874,16954
25868,16946
25863,16937
25859,16929
25856,16920
25853,16910
25852,16901
25852,16891
25852,16596
25852,16586
25853,16577
25856,16567
25859,16558
25863,16549
25868,16541
25874,16533
25880,16526
25887,16520
25895,16514
25904,16509
25912,16505
25921,16502
25931,16499
25940,16498
25950,16497
26442,16497
26452,16498
" /> 
<polyline style="fill-rule:evenodd;"
points="26452,17600
26461,17602
26471,17604
26480,17607
26488,17611
26497,17616
26504,17622
26512,17629
26518,17636
26524,17643
26529,17652
26533,17661
26536,17670
26539,17679
26540,17689
26540,17698
26540,17993
26540,18003
26539,18013
26536,18022
26533,18031
26529,18040
26524,18048
26518,18056
26512,18063
26504,18070
26497,18075
26488,18080
26480,18084
26471,18088
26461,18090
26452,18091
26442,18092
25950,18092
25940,18091
25931,18090
25921,18088
25912,18084
25904,18080
25895,18075
25887,18070
25880,18063
25874,18056
25868,18048
25863,18040
25859,18031
25856,18022
25853,18013
25852,18003
25852,17993
25852,17698
25852,17689
25853,17679
25856,17670
25859,17661
25863,17652
25868,17643
25874,17636
25880,17629
25887,17622
25895,17616
25904,17611
25912,17607
25921,17604
25931,17602
25940,17600
25950,17600
26442,17600
26452,17600
" /> 
<polyline style="fill-rule:evenodd;"
points="22385,16555
22976,16555
22976,16830
22385,16830
22385,16555
" /> 
<polyline style="fill-rule:evenodd;"
points="22385,17736
22976,17736
22976,18011
22385,18011
22385,17736
" /> 
<polyline style="fill-rule:evenodd;"
points="20925,16554
21515,16554
21515,16830
20925,16830
20925,16554
" /> 
<polyline style="fill-rule:evenodd;"
points="20925,17086
21515,17086
21515,17480
20925,17480
20925,17086
" /> 
<polyline style="fill-rule:evenodd;"
points="20925,17736
21515,17736
21515,18011
20925,18011
20925,17736
" /> 
<polyline style="fill-rule:evenodd;"
points="21784,16929
22975,16929
22975,17637
21784,17637
21784,16929
" /> 
<polyline style="fill-rule:evenodd;"
points="21791,17637
21492,17480
21492,17086
21791,16929
21791,17637
" /> 
</g>
<g style="fill:#FFFFFF; fill-opacity:1.0; 
stroke:#FFFFFF; stroke-width:275.591; stroke-opacity:1; 
stroke-linecap:round; stroke-linejoin:round;">
</g>
<g style="fill:#FFFFFF; fill-opacity:0.0; 
stroke:#FFFFFF; stroke-width:275.591; stroke-opacity:1; 
stroke-linecap:round; stroke-linejoin:round;">
<path d="M16771 14960
L17047 14960
" />
<path d="M17952 15866
L20157 15866
" />
<path d="M17047 14960
L17952 15866
" />
<path d="M20157 15866
L20393 16102
" />
<path d="M22681 16692
L22681 16106
" />
<path d="M22681 16106
L22677 16102
" />
<path d="M26195 16744
L26196 16743
" />
<path d="M22362 16102
L22677 16102
" />
<path d="M21141 16102
L20393 16102
" />
<path d="M21141 15196
L21141 16102
" />
<path d="M22362 16102
L21141 16102
" />
</g>
<g style="fill:#FFFFFF; fill-opacity:0.0; 
stroke:#FFFFFF; stroke-width:472.441; stroke-opacity:1; 
stroke-linecap:round; stroke-linejoin:round;">
<path d="M25078 16744
L26195 16744
" />
</g>
<g style="fill:#FFFFFF; fill-opacity:0.0; 
stroke:#FFFFFF; stroke-width:275.591; stroke-opacity:1; 
stroke-linecap:round; stroke-linejoin:round;">
<path d="M25078 16259
L25078 16744
" />
<path d="M24921 16102
L25078 16259
" />
</g>
<g style="fill:#FFFFFF; fill-opacity:0.0; 
stroke:#FFFFFF; stroke-width:472.441; stroke-opacity:1; 
stroke-linecap:round; stroke-linejoin:round;">
<path d="M23961 16744
L25078 16744
" />
</g>
<g style="fill:#FFFFFF; fill-opacity:0.0; 
stroke:#FFFFFF; stroke-width:275.591; stroke-opacity:1; 
stroke-linecap:round; stroke-linejoin:round;">
<path d="M22685 16102
L22681 16106
" />
<path d="M24921 16102
L24133 16102
" />
<path d="M24133 16102
L22685 16102
" />
<path d="M24133 15866
L24133 16102
" />
<path d="M24124 15856
L24133 15866
" />
<path d="M24124 15314
L24124 15856
" />
<path d="M17328 16210
L16771 16210
" />
<path d="M17631 16513
L17328 16210
" />
<path d="M17631 17355
L17631 16513
" />
<path d="M21220 17283
L20551 17283
" />
<path d="M20551 17283
L20196 17637
" />
<path d="M20196 17637
L17913 17637
" />
<path d="M17913 17637
L17631 17355
" />
<path d="M21220 17283
L22379 17283
" />
<path d="M22379 17283
L26720 17283
" />
<path d="M27165 15905
L27010 15751
" />
<path d="M27165 16838
L27165 15905
" />
<path d="M27010 15751
L26574 15314
" />
<path d="M26720 17283
L27165 16838
" />
<path d="M18976 14724
L19724 14724
" />
<path d="M27952 14685
L27952 15507
" />
<path d="M22716 15196
L22716 14566
" />
<path d="M27716 14448
L20078 14448
" />
<path d="M27716 14448
L27952 14685
" />
<path d="M19803 14724
L18976 14724
" />
<path d="M20078 14448
L19803 14724
" />
<path d="M21220 17874
L20649 17874
" />
<path d="M20649 17874
L20413 18110
" />
<path d="M17421 18110
L16771 17460
" />
<path d="M20413 18110
L17421 18110
" />
<path d="M26195 17847
L26196 17846
" />
</g>
<g style="fill:#FFFFFF; fill-opacity:0.0; 
stroke:#FFFFFF; stroke-width:472.441; stroke-opacity:1; 
stroke-linecap:round; stroke-linejoin:round;">
<path d="M23961 17847
L26195 17847
" />
</g>
<g style="fill:#FFFFFF; fill-opacity:0.0; 
stroke:#FFFFFF; stroke-width:275.591; stroke-opacity:1; 
stroke-linecap:round; stroke-linejoin:round;">
<path d="M27114 17846
L27952 17007
" />
<path d="M26196 17846
L27114 17846
" />
<path d="M23961 17847
L23373 17847
" />
<path d="M23346 17874
L22681 17874
" />
<path d="M23373 17847
L23346 17874
" />
<path d="M20354 16692
L20157 16889
" />
<path d="M20157 16889
L18976 16889
" />
<path d="M21220 16692
L20354 16692
" />
</g> 
</svg>
